<?xml version="1.0" encoding="UTF-8"?>
<svg width="134px" height="69px" viewBox="0 0 134 69" version="1.1" xmlns="http://www.w3.org/2000/svg" xmlns:xlink="http://www.w3.org/1999/xlink">
    <title>Group 3</title>
    <desc>Created with Sketch.</desc>
    <defs></defs>
    <g id="Page-1" stroke="none" stroke-width="1" fill="none" fill-rule="evenodd">
        <g id="Web-About-Us" transform="translate(-653.000000, -511.000000)">
            <g id="Group-3" transform="translate(653.000000, 511.000000)">
                <path d="M80.9162828,27.6305282 C80.7913458,27.9787458 80.5319609,28.26139 80.2047036,28.4061038 L76.7795261,29.921981 C76.1539762,30.1982939 75.4264016,29.9237899 75.1233536,29.2979027 C73.2907993,25.5122798 69.4843261,23.2882094 65.4279787,23.6341659 C60.4192564,24.0592627 56.4139214,28.5159959 56.3097351,33.7808653 C56.2539674,36.5973578 57.2629746,39.2587353 59.150432,41.2743274 C61.038754,43.2908239 63.5604075,44.4015024 66.2506611,44.4015024 C69.7268509,44.4015024 72.8913466,42.5545924 74.715687,39.4613346 C75.0623982,38.8725303 75.7895405,38.6631475 76.369698,38.9842313 L79.72268,40.8379248 C80.0287542,41.007059 80.2587421,41.3046268 80.352553,41.6537489 C80.4459316,42.001062 80.39881,42.3773179 80.2232929,42.6861915 C77.3095359,47.8144872 71.9553995,51 66.2506611,51 C61.9016411,51 57.8124383,49.2191156 54.7365658,45.9856664 C51.6611256,42.7526694 49.9790146,38.4659749 50.0001977,33.91563 C50.0412669,25.0948709 56.6512586,17.6846193 65.0488444,17.0465218 C71.7409746,16.5350489 77.9484874,20.2754487 80.8700259,26.5682384 C81.0256568,26.9033413 81.0420845,27.2805017 80.9162828,27.6305282 M92.9546431,22.7900314 C91.3526981,18.8117735 92.0994826,13.1028559 89.1882515,10.1047027 C86.2774591,7.10700136 80.7340537,7.87563114 76.8711329,6.2258561 C73.1446693,4.63482407 69.7850164,0 65.5,0 C61.2149836,0 57.8557695,4.63482407 54.1293058,6.2258561 C50.2668238,7.87563114 44.7229797,7.10700136 41.8121873,10.1047027 C38.9009561,13.1028559 39.6477407,18.8117735 38.0462344,22.7900314 C36.5008906,26.627306 32,30.0872697 32,34.5002259 C32,38.9131821 36.5008906,42.3731459 38.0457957,46.2104205 C39.6477407,50.1886784 38.9009561,55.8975959 41.8121873,58.8952973 C44.7229797,61.8934505 50.2668238,61.1248207 54.1293058,62.7741439 C57.8557695,64.3656278 61.2149836,69 65.5,69 C69.7850164,69 73.1446693,64.3656278 76.8711329,62.7741439 C80.7340537,61.1248207 86.2770203,61.8934505 89.1882515,58.8957492 C92.0990439,55.8975959 91.3526981,50.1886784 92.9546431,46.2104205 C94.4995481,42.3731459 99,38.9131821 99,34.5002259 C99,30.0872697 94.4995481,26.627306 92.9546431,22.7900314" id="Fill-11" fill="#FF5722"></path>
                <path d="M120.937887,19.8165649 C120.845192,20.0726072 120.652745,20.2804338 120.409941,20.386841 L117.868681,21.5014566 C117.404563,21.7046279 116.86475,21.5027867 116.639908,21.0425755 C115.28027,18.2590293 112.456113,16.6236834 109.446565,16.8780631 C105.730416,17.1906343 102.758716,20.467644 102.681416,24.3388715 C102.64004,26.4098219 103.388659,28.3667171 104.78903,29.8487701 C106.190043,31.3314881 108.060947,32.1481635 110.056942,32.1481635 C112.636051,32.1481635 114.983902,30.7901414 116.337445,28.5156872 C116.594683,28.0827429 117.134175,27.9287849 117.564615,28.1648759 L120.052311,29.5278859 C120.279398,29.6522493 120.450034,29.8710491 120.519636,30.1277565 C120.588917,30.3831338 120.553956,30.6597926 120.423733,30.8869055 C118.261914,34.6577112 114.28949,37 110.056942,37 C106.83025,37 103.796325,35.6905262 101.514226,33.31299 C99.232448,30.9357863 97.9844302,27.7838051 98.0001466,24.4379632 C98.0306174,17.952111 102.934805,12.5033965 109.165272,12.0342072 C114.130401,11.6581242 118.735975,14.4084182 120.903568,19.0354694 C121.019036,19.2818686 121.031224,19.5591924 120.937887,19.8165649 M129.578769,16.5145155 C128.407197,13.6317199 128.953353,9.49482315 126.824244,7.32224834 C124.695455,5.15000098 120.641323,5.70697909 117.816202,4.51148992 C115.090878,3.35856816 112.633818,0 109.5,0 C106.366182,0 103.909443,3.35856816 101.184119,4.51148992 C98.3593189,5.70697909 94.3048657,5.15000098 92.1760773,7.32224834 C90.0469679,9.49482315 90.5931238,13.6317199 89.421873,16.5145155 C88.2916961,19.2951493 85,21.8023694 85,25.0001637 C85,28.1979581 88.2916961,30.7051782 89.4215521,33.485812 C90.5931238,36.3686075 90.0469679,40.5055043 92.1760773,42.6777517 C94.3048657,44.8503265 98.3593189,44.2933484 101.184119,45.4885101 C103.909443,46.6417593 106.366182,50 109.5,50 C112.633818,50 115.090878,46.6417593 117.816202,45.4885101 C120.641323,44.2933484 124.695134,44.8503265 126.824244,42.6780791 C128.953032,40.5055043 128.407197,36.3686075 129.578769,33.485812 C130.708625,30.7051782 134,28.1979581 134,25.0001637 C134,21.8023694 130.708625,19.2951493 129.578769,16.5145155" id="Fill-11-Copy" fill="#FF8000" opacity="0.0984488225"></path>
                <path d="M35.9378873,19.8165649 C35.845192,20.0726072 35.6527452,20.2804338 35.4099414,20.386841 L32.8686807,21.5014566 C32.404563,21.7046279 31.8647496,21.5027867 31.6399075,21.0425755 C30.2802705,18.2590293 27.4561129,16.6236834 24.4465648,16.8780631 C20.7304161,17.1906343 17.7587159,20.467644 17.6814164,24.3388715 C17.6400403,26.4098219 18.3886586,28.3667171 19.7890302,29.8487701 C21.1900433,31.3314881 23.0609475,32.1481635 25.0569421,32.1481635 C27.6360507,32.1481635 29.9839023,30.7901414 31.3374452,28.5156872 C31.5946825,28.0827429 32.1341752,27.9287849 32.5646146,28.1648759 L35.052311,29.5278859 C35.2793983,29.6522493 35.4500345,29.8710491 35.5196361,30.1277565 C35.588917,30.3831338 35.5539558,30.6597926 35.4237334,30.8869055 C33.2619138,34.6577112 29.2894899,37 25.0569421,37 C21.8302498,37 18.7963252,35.6905262 16.5142262,33.31299 C14.232448,30.9357863 12.9844302,27.7838051 13.0001466,24.4379632 C13.0306174,17.952111 17.9348048,12.5033965 24.1652717,12.0342072 C29.1304005,11.6581242 33.7359745,14.4084182 35.9035676,19.0354694 C36.0190357,19.2818686 36.031224,19.5591924 35.9378873,19.8165649 M44.5787688,16.5145155 C43.4071971,13.6317199 43.953353,9.49482315 41.8242436,7.32224834 C39.6954551,5.15000098 35.6413229,5.70697909 32.8162017,4.51148992 C30.0908775,3.35856816 27.6338179,0 24.5,0 C21.3661821,0 18.9094434,3.35856816 16.1841192,4.51148992 C13.3593189,5.70697909 9.30486575,5.15000098 7.17607728,7.32224834 C5.04696791,9.49482315 5.59312377,13.6317199 4.42187295,16.5145155 C3.29169614,19.2951493 0,21.8023694 0,25.0001637 C0,28.1979581 3.29169614,30.7051782 4.42155206,33.485812 C5.59312377,36.3686075 5.04696791,40.5055043 7.17607728,42.6777517 C9.30486575,44.8503265 13.3593189,44.2933484 16.1841192,45.4885101 C18.9094434,46.6417593 21.3661821,50 24.5,50 C27.6338179,50 30.0908775,46.6417593 32.8162017,45.4885101 C35.6413229,44.2933484 39.6951343,44.8503265 41.8242436,42.6780791 C43.9530321,40.5055043 43.4071971,36.3686075 44.5787688,33.485812 C45.7086248,30.7051782 49,28.1979581 49,25.0001637 C49,21.8023694 45.7086248,19.2951493 44.5787688,16.5145155" id="Fill-11-Copy-2" fill="#FF5722" opacity="0.0984488225"></path>
            </g>
        </g>
    </g>
</svg>